<?xml version="1.0" encoding="utf-8"?>
<!-- Generator: Adobe Illustrator 19.2.1, SVG Export Plug-In . SVG Version: 6.00 Build 0)  -->
<svg version="1.1" xmlns="http://www.w3.org/2000/svg" xmlns:xlink="http://www.w3.org/1999/xlink" x="0px" y="0px"
	 viewBox="0 0 474 298" style="enable-background:new 0 0 474 298;" xml:space="preserve">
<style type="text/css">
	.Arched_x0020_Green{fill:url(#SVGID_1_);stroke:#FFFFFF;stroke-width:0.25;stroke-miterlimit:1;}
	.st0{fill:none;stroke:#231F20;}
	.st1{fill:none;stroke:#231F20;stroke-width:4;}
	.st2{fill:none;stroke:#1B75BB;stroke-width:3;}
	.st3{fill:#231F20;}
	.st4{fill:none;stroke:#9B9EBA;stroke-linecap:round;stroke-linejoin:round;}
	.st5{fill:#9B9EBA;stroke:#FFFFFF;stroke-linecap:round;stroke-linejoin:round;}
	.st6{fill:#9B9EBA;stroke:#9B9EBA;stroke-width:3;stroke-linecap:round;stroke-linejoin:round;}
	.st7{fill:none;stroke:#64AA33;stroke-width:3;stroke-linecap:round;stroke-linejoin:round;}
	.st8{fill:none;stroke:#231F20;stroke-width:4;stroke-linecap:round;stroke-linejoin:round;}
	.st9{fill:#1B75BB;}
	.st10{fill:none;stroke:#793E97;stroke-width:4;stroke-linecap:round;stroke-linejoin:round;}
	.st11{fill:none;stroke:#649533;stroke-width:4;stroke-linecap:round;stroke-linejoin:round;}
	.st12{fill:none;stroke:#EFA21F;stroke-width:4;stroke-linecap:round;stroke-linejoin:round;}
	.st13{fill:#793E97;stroke:#793E97;stroke-width:3;stroke-linecap:round;stroke-linejoin:round;}
	.st14{fill:#649533;stroke:#649533;stroke-width:3;stroke-linecap:round;stroke-linejoin:round;}
	.st15{fill:#EFA21F;stroke:#EFA21F;stroke-width:3;stroke-linecap:round;stroke-linejoin:round;}
	.st16{fill:none;stroke:#7C7E93;stroke-width:4;stroke-linecap:round;stroke-linejoin:round;}
	.st17{fill:none;stroke:#64AA33;stroke-width:4;stroke-linecap:round;stroke-linejoin:round;}
	.st18{fill:#215A2D;}
	.st19{fill:#68297E;}
	.st20{fill:#EFA21F;}
	.st21{fill:#732B8C;}
	.st22{fill:#649533;}
	.st23{fill:#64AA33;}
	.st24{fill:#793E97;}
	.st25{fill:#7C7E93;}
	.st26{fill:none;stroke:#231F20;stroke-width:5;stroke-linecap:round;stroke-linejoin:round;}
	.st27{fill:none;stroke:#231F20;stroke-width:5.2250199;stroke-linecap:round;stroke-linejoin:round;}
	.st28{fill:none;stroke:#231F20;stroke-width:5.17836;stroke-linecap:round;stroke-linejoin:round;}
	.st29{fill:none;stroke:#64AA33;stroke-width:7;stroke-linecap:round;stroke-linejoin:round;}
	.st30{fill:none;stroke:#EFA21F;stroke-width:10;stroke-linecap:round;stroke-linejoin:round;}
	.st31{fill:none;stroke:#793E97;stroke-width:5;stroke-linecap:round;stroke-linejoin:round;}
	.st32{fill:none;stroke:#7C7E93;stroke-width:3;stroke-linecap:round;stroke-linejoin:round;}
	.st33{fill:none;stroke:#9B9EBA;stroke-width:4;stroke-linecap:round;stroke-linejoin:round;}
	.st34{fill:none;stroke:#EF861F;stroke-width:3;stroke-linecap:round;stroke-linejoin:round;}
	.st35{fill:none;stroke:#9B9EBA;stroke-width:3;stroke-linecap:round;stroke-linejoin:round;}
	.st36{fill:#64AA33;stroke:#FFFFFF;}
	.st37{fill:none;stroke:#9B9EBA;stroke-width:2;stroke-linejoin:round;}
	.st38{fill:none;stroke:#64AA33;stroke-width:2;}
	.st39{fill:none;stroke:#9B9EBA;stroke-width:2;}
	.st40{fill:#EF861F;stroke:#FFFFFF;stroke-linecap:round;stroke-linejoin:round;}
	.st41{fill:none;stroke:#FFFFFF;stroke-linecap:round;stroke-linejoin:round;}
	.st42{fill:#64AA33;stroke:#FFFFFF;stroke-linecap:round;stroke-linejoin:round;}
	.st43{fill:#EF861F;stroke:#EF861F;stroke-linecap:round;stroke-linejoin:round;}
	.st44{fill:none;stroke:#9B9EBA;stroke-width:2.9323101;stroke-linecap:round;stroke-linejoin:round;}
	.st45{fill:#64AA33;stroke:#FFFFFF;stroke-width:2.9323101;stroke-linecap:round;stroke-linejoin:round;}
	.st46{fill:#9B9EBA;stroke:#FFFFFF;stroke-width:2.9323101;stroke-linecap:round;stroke-linejoin:round;}
	.st47{fill:#EF861F;stroke:#FFFFFF;stroke-width:2.9323101;stroke-linecap:round;stroke-linejoin:round;}
	.st48{fill:#9B9EBA;}
	.st49{fill:none;stroke:#462C51;stroke-width:2;stroke-linecap:round;stroke-linejoin:round;}
	.st50{fill:#00947E;stroke:#FFFFFF;stroke-width:2;stroke-linecap:round;stroke-linejoin:round;}
	.st51{fill:#714F80;stroke:#FFFFFF;stroke-width:2;stroke-linecap:round;stroke-linejoin:round;}
	.st52{fill:#FD9A00;stroke:#FFFFFF;stroke-width:2;stroke-linecap:round;stroke-linejoin:round;}
	.st53{fill:#FFFFFF;stroke:#FFFFFF;stroke-width:2;stroke-linecap:round;stroke-linejoin:round;}
	.st54{fill:#00947E;stroke:#462C51;stroke-width:2;stroke-linecap:round;stroke-linejoin:round;}
	.st55{fill:#FD9A00;stroke:#462C51;stroke-width:2;stroke-linecap:round;stroke-linejoin:round;}
	.st56{fill:#714F80;stroke:#462C51;stroke-width:2;stroke-linecap:round;stroke-linejoin:round;}
	.st57{fill:#FFFFFF;stroke:#462C51;stroke-width:2;stroke-linecap:round;stroke-linejoin:round;}
	.st58{fill:#FFFFFF;stroke:#9B9EBA;stroke-width:2.9323101;stroke-linecap:round;stroke-linejoin:round;}
	.st59{fill:#EF861F;stroke:#EF861F;stroke-width:2.9323101;stroke-linecap:round;stroke-linejoin:round;}
	.st60{fill:#64AA33;stroke:#64AA33;stroke-width:2.9323101;stroke-linecap:round;stroke-linejoin:round;}
	.st61{fill:#462C51;}
	.st62{fill:#714F80;}
	.st63{fill:#45795C;}
	.st64{fill:#FD5000;}
	.st65{fill:#FD9A00;}
	.st66{fill:#F4CD00;}
	.st67{fill:#8DD6B4;}
	.st68{fill:#3C7266;}
	.st69{fill:#564156;}
	.st70{fill:#00947E;}
	.st71{fill:#51C438;}
	.st72{fill:#4E9A3D;}
	.st73{fill:#006800;}
	.st74{fill:#7ABB26;}
	.st75{fill:#00947E;stroke:#FFFFFF;stroke-width:2.5;stroke-linecap:round;stroke-linejoin:round;}
	.st76{fill:#714F80;stroke:#FFFFFF;stroke-width:2.5;stroke-linecap:round;stroke-linejoin:round;}
	.st77{fill:#FD9A00;stroke:#FFFFFF;stroke-width:2.5;stroke-linecap:round;stroke-linejoin:round;}
	.st78{fill:#FFFFFF;stroke:#462C51;stroke-width:1.2;stroke-linecap:round;stroke-linejoin:round;}
	.st79{fill:#FD9A00;stroke:#462C51;stroke-width:1.2;stroke-linecap:round;stroke-linejoin:round;}
	.st80{fill:#714F80;stroke:#462C51;stroke-width:1.2;stroke-linecap:round;stroke-linejoin:round;}
	.st81{fill:#00947E;stroke:#FFFFFF;stroke-width:4.9406199;stroke-linecap:round;stroke-linejoin:round;}
	.st82{fill:#714F80;stroke:#FFFFFF;stroke-width:4.9406199;stroke-linecap:round;stroke-linejoin:round;}
	.st83{fill:#FD9A00;stroke:#FFFFFF;stroke-width:4.9406199;stroke-linecap:round;stroke-linejoin:round;}
	.st84{fill:#FFFFFF;stroke:#462C51;stroke-width:2.3715;stroke-linecap:round;stroke-linejoin:round;}
	.st85{fill:#FD9A00;stroke:#462C51;stroke-width:2.3715;stroke-linecap:round;stroke-linejoin:round;}
	.st86{fill:#714F80;stroke:#462C51;stroke-width:2.3715;stroke-linecap:round;stroke-linejoin:round;}
	.st87{fill:#FFB700;stroke:#FFFFFF;stroke-width:5;stroke-linecap:round;stroke-linejoin:round;}
	.st88{fill:#01B279;stroke:#FFFFFF;stroke-width:5;stroke-linecap:round;stroke-linejoin:round;}
	.st89{fill:#714F80;stroke:#FFFFFF;stroke-width:5;stroke-linecap:round;stroke-linejoin:round;}
	.st90{fill:#FFFFFF;}
	.st91{fill:#FFB700;}
	.st92{fill:#462C51;stroke:#FFFFFF;stroke-width:2;}
	.st93{fill:#FFFFFF;stroke:#01B279;stroke-width:8;stroke-linecap:round;stroke-linejoin:round;}
	.st94{fill:#FFFFFF;stroke:#FFB700;stroke-width:8;stroke-linecap:round;stroke-linejoin:round;}
	.st95{fill:#FFFFFF;stroke:#714F80;stroke-width:8;stroke-linecap:round;stroke-linejoin:round;}
	.st96{fill:#FFFFFF;stroke:#FFB700;stroke-width:5.4545498;stroke-linecap:round;stroke-linejoin:round;}
	.st97{fill:#918996;}
	.st98{fill:#01B279;}
	.st99{fill:#FC5B5B;}
	.st100{fill:#F7A757;}
	.st101{fill:#F9895D;}
	.st102{fill:#BCBAB7;}
	.st103{fill:none;stroke:#462C51;stroke-linecap:round;stroke-linejoin:round;}
	.st104{fill:#918996;stroke:#FFFFFF;stroke-width:5;stroke-linecap:round;stroke-linejoin:round;}
</style>
<linearGradient id="SVGID_1_" gradientUnits="userSpaceOnUse" x1="-2454.833252" y1="-3579.0268555" x2="-2454.1262207" y2="-3579.7338867">
	<stop  offset="0" style="stop-color:#1EAB4B"/>
	<stop  offset="0.983146" style="stop-color:#19361A"/>
</linearGradient>
<g id="Layer_1">
</g>
<g id="Layer_2">
	<polygon class="st101" points="119.7011337,41.184536 48.1865311,112.7011337 145.8730316,138.8710327 	"/>
	<polygon class="st98" points="227.4199371,70.0537338 155.9111328,141.5605316 253.5966339,167.7314301 	"/>
	<polygon class="st97" points="148.5625305,148.9091339 77.045929,220.4257355 174.7324371,246.5966339 	"/>
	<polygon class="st98" points="252.0439301,173.5263367 154.3574371,147.3554382 180.5273285,245.0429382 	"/>
	<polygon class="st98" points="223.1845245,65.8017349 125.4961319,39.6308365 151.667923,137.317337 	"/>
	<polygon class="st98" points="144.3193359,144.6660309 46.6328316,118.4960403 72.8027267,216.1826324 	"/>
	<polygon class="st101" points="187.699234,197.6103363 247.3183289,197.6149445 217.5124359,249.2473297 	"/>
	<g>
		<path class="st97" d="M296.078125,223.4287415c0-7.8897095-2.6835938-14.3379059-7.9746094-19.1670074h-0.0009766
			c-2.6123047-2.3896942-5.5586243-4.1044922-8.7588196-5.0986938c-3.0350952-1.0332031-7.2284851-1.5527039-12.4882812-1.5527039
			H256.601532v51.6367035h10.1152954c5.3085022,0,9.4443054-0.4853058,12.2929077-1.4423981
			c3.0409851-0.9541016,5.9815063-2.6737976,8.7597961-5.1171112
			C293.2822266,237.8164368,296.078125,231.3359375,296.078125,223.4287415z M283.610321,238.3779297
			c-2.0380859,1.8457031-4.3534851,3.2119141-6.8808899,4.0635071c-2.5155945,0.7967987-5.6689148,1.1981964-9.3876038,1.1981964
			h-4.6464844v-40.4218903h4.6464844c7.1289062,0,12.6289062,1.7372894,16.3457031,5.1631012
			c4.1336975,3.8427887,6.2284851,8.9042969,6.2284851,15.0478973c0,6.1015015-2.1200867,11.1307983-6.3027954,14.9462891
			L283.610321,238.3779297z"/>
		<path class="st97" d="M342.3984375,223.4287415c0-7.8897095-2.6835938-14.3379059-7.9746094-19.1670074
			c-2.6133118-2.3896942-5.5596008-4.1044922-8.7597961-5.0986938c-3.0350952-1.0332031-7.2285156-1.5527039-12.4883118-1.5527039
			h-10.2538757v51.6367035h10.1152954c5.3085938,0,9.4442749-0.4853058,12.2928772-1.4423981
			c3.0411072-0.9541016,5.9815063-2.6737976,8.7598267-5.1171112
			C339.6025391,237.8164368,342.3984375,231.3359375,342.3984375,223.4287415z M323.0498352,242.4414368
			c-2.5157166,0.7967987-5.6690063,1.1981964-9.3876953,1.1981964h-4.6465149v-40.4218903h4.6465149
			c7.1288757,0,12.6288757,1.7372894,16.3457031,5.1631012c4.1337891,3.8427887,6.2284851,8.9042969,6.2284851,15.0478973
			c0,6.1015015-2.1200867,11.1307983-6.3027039,14.9462891
			C327.8925171,240.2236328,325.5771179,241.5898438,323.0498352,242.4414368z"/>
		<path class="st97" d="M346.5664368,223.6718445c0,7.9072876,2.9140015,14.4921875,8.6600952,19.573288
			c5.2940063,4.6269073,11.4423828,6.9746094,18.2695923,6.9746094c5.2695007,0,10.1132202-1.3955078,14.3963928-4.1484985
			l0.686615-0.4414062l4.4804077,4.5899048h7.3017883l-7.8085938-7.6240082l0.6786804-0.7148895
			c4.9121094-5.1777039,7.4033203-11.1758118,7.4033203-17.8271027c0-8.5214996-3.1542969-15.5234985-9.3739929-20.8106079
			c-5.1855164-4.406189-11.1270142-6.6405945-17.6592102-6.6405945c-7.2030945,0-13.5400085,2.5487976-18.8348999,7.5771027
			C349.3252258,209.3544312,346.5664368,215.9130402,346.5664368,223.6718445z M358.6044312,208.347641
			c3.8789978-4.0702972,8.890686-6.1367035,14.8916931-6.1367035c5.9257202,0,10.9580078,2.0625,14.9570007,6.1298981
			c3.993103,4.0634003,6.0176086,9.1688995,6.0176086,15.1748047c0,5.4960938-1.8233032,10.1777039-5.4200134,13.9169922
			l-0.7049866,0.7324066l-8.2099915-8.1660004h-7.5742188l11.797821,11.4297028l-1.1640015,0.6582031
			c-2.9639282,1.6756897-6.3203125,2.5253906-9.9766235,2.5253906c-5.3808899,0-10.2294922-2.0079041-14.4100952-5.9658966
			c-4.0341797-3.8623047-6.078186-8.8818054-6.078186-14.9228058
			C352.7304382,217.5585327,354.7070312,212.3847351,358.6044312,208.347641z"/>
	</g>
</g>
</svg>
